<svg width="17" height="17" viewBox="0 0 17 17" fill="none" xmlns="http://www.w3.org/2000/svg">
<path d="M8.49999 3.66666C8.86818 3.66666 9.16666 3.36818 9.16666 2.99999C9.16666 2.63181 8.86818 2.33333 8.49999 2.33333C8.13181 2.33333 7.83333 2.63181 7.83333 2.99999C7.83333 3.36818 8.13181 3.66666 8.49999 3.66666Z" fill="#9DA4B2"/>
<path d="M8.49999 9.16666C8.86818 9.16666 9.16666 8.86819 9.16666 8.5C9.16666 8.13181 8.86818 7.83333 8.49999 7.83333C8.13181 7.83333 7.83333 8.13181 7.83333 8.5C7.83333 8.86819 8.13181 9.16666 8.49999 9.16666Z" fill="#9DA4B2"/>
<path d="M8.49999 14.6667C8.86818 14.6667 9.16666 14.3682 9.16666 14C9.16666 13.6318 8.86818 13.3333 8.49999 13.3333C8.13181 13.3333 7.83333 13.6318 7.83333 14C7.83333 14.3682 8.13181 14.6667 8.49999 14.6667Z" fill="#9DA4B2"/>
<path d="M8.49999 3.66666C8.86818 3.66666 9.16666 3.36818 9.16666 2.99999C9.16666 2.63181 8.86818 2.33333 8.49999 2.33333C8.13181 2.33333 7.83333 2.63181 7.83333 2.99999C7.83333 3.36818 8.13181 3.66666 8.49999 3.66666Z" stroke="#9DA4B2" stroke-width="1.5" stroke-linecap="round" stroke-linejoin="round"/>
<path d="M8.49999 9.16666C8.86818 9.16666 9.16666 8.86819 9.16666 8.5C9.16666 8.13181 8.86818 7.83333 8.49999 7.83333C8.13181 7.83333 7.83333 8.13181 7.83333 8.5C7.83333 8.86819 8.13181 9.16666 8.49999 9.16666Z" stroke="#9DA4B2" stroke-width="1.5" stroke-linecap="round" stroke-linejoin="round"/>
<path d="M8.49999 14.6667C8.86818 14.6667 9.16666 14.3682 9.16666 14C9.16666 13.6318 8.86818 13.3333 8.49999 13.3333C8.13181 13.3333 7.83333 13.6318 7.83333 14C7.83333 14.3682 8.13181 14.6667 8.49999 14.6667Z" stroke="#9DA4B2" stroke-width="1.5" stroke-linecap="round" stroke-linejoin="round"/>
</svg>
